<svg id="Layer_1" data-name="Layer 1" xmlns="http://www.w3.org/2000/svg" viewBox="0 0 886.56 133.27"><path d="M0,66.44C0,28.39,22.21,0,62.39,0c27.23,0,47.32,13.13,56.2,36.5L99.66,50C95.8,33.41,83.44,20.67,62.58,20.67c-27,0-39.4,18.92-39.4,45.77,0,27.43,12.55,46,38.05,46,21.82,0,31.48-11.78,36.12-29.74H60.07V64.32h59.1v67H105.26l-6-48.67c-1,29.16-17.39,50.21-46.17,50.21C19.89,132.88,0,107.58,0,66.44Z"/><path d="M141,66.44C141,29.16,166.69,0,204.74,0c37.86,0,63.74,29.16,63.74,66.44,0,37.47-25.88,66.64-63.74,66.64C166.69,133.08,141,103.91,141,66.44Zm104.69,0c0-26.65-13.72-45.77-40.76-45.77s-41,19.12-41,45.77c0,26.85,13.91,45.78,41,45.78S245.69,93.29,245.69,66.44Z"/><path d="M289.73,66.44C289.73,29.16,312.13,0,351.92,0c28.58,0,48.29,14.68,57.36,40L390.35,53.89c-4.05-19.51-16-33.22-38.24-33.22-26.65,0-39.21,18.92-39.21,45.77,0,26.66,12.56,45.78,39.21,45.78,22.21,0,34.19-13.91,38.24-33.22l18.93,13.9c-9.07,25.11-28.78,40-57.36,40C312.13,132.88,289.73,103.72,289.73,66.44Z"/><path d="M431.5,131.34V1.93h21.83V112h66.25v19.32Z"/><path d="M525.76,131.34,576.36,1.93h25.11l50.61,129.41h-24L615.77,98.7H561.11l-12.37,32.64Zm42.49-51.57h40.37l-13.13-35-7-23.37-6.95,23.37Z"/><path d="M660.38,102.56l15.45-15.64c7,18.92,26.47,26.26,42.3,26.26,13,0,23.37-4.63,23.37-16.41,0-12.56-10.42-16-27.23-19.71l-12.17-2.7c-18.35-3.86-37.85-12.17-37.85-36.7,0-24.33,21-37.47,45.39-37.47,23.75,0,42.68,9.85,52,27.62L745.17,43.46c-7.14-16-21-23-36.89-23-12.36,0-21.24,5.8-21.24,15.65,0,11.39,8.88,15.45,23,18.93l14.49,3.47c20.66,5,39.21,13.14,39.21,37.86,0,23.37-19.7,36.89-46,36.89C693,133.27,670.43,124.39,660.38,102.56Z"/><path d="M783.23,102.56l15.45-15.64c7,18.92,26.46,26.26,42.3,26.26,12.94,0,23.37-4.63,23.37-16.41,0-12.56-10.43-16-27.24-19.71l-12.17-2.7c-18.34-3.86-37.85-12.17-37.85-36.7,0-24.33,21-37.47,45.39-37.47,23.75,0,42.68,9.85,51.95,27.62L868,43.46c-7.15-16-21.06-23-36.9-23-12.36,0-21.24,5.8-21.24,15.65,0,11.39,8.88,15.45,23,18.93l14.49,3.47c20.67,5,39.21,13.14,39.21,37.86,0,23.37-19.7,36.89-46,36.89C815.87,133.27,793.27,124.39,783.23,102.56Z"/></svg>